<svg xmlns="http://www.w3.org/2000/svg" width="90.498" height="66.013" viewBox="0 0 90.498 66.013">
  <g id="Grupo_160" data-name="Grupo 160" transform="translate(-118.37 -528.398)">
    <g id="Grupo_159" data-name="Grupo 159" transform="translate(118.37 528.398)">
      <path id="Trazado_1" data-name="Trazado 1" d="M185,636.94c0-.452-1.976-.849-4.965-1.079,2.368-.048,4.124-.223,4.124-.431,0-.245-2.435-.444-5.44-.444s-5.44.2-5.44.444c0,.081.265.157.729.222-6.017,0-10.887.579-10.887,1.288,0,.369,1.319.7,3.433.937-1.284.081-2.11.208-2.11.351,0,.245,2.435.444,5.44.444s5.44-.2,5.44-.444a.038.038,0,0,0,0-.009C180.769,638.146,185,637.6,185,636.94Z" transform="translate(-160.929 -581.136)" fill="#f2f2f2"/>
      <path id="Trazado_2" data-name="Trazado 2" d="M288.27,644.469q-.218,0-.43,0c2.31.035,4.118.344,4.118.721s-1.808.687-4.118.721q.212,0,.43,0c2.512,0,4.548-.324,4.548-.725S290.782,644.469,288.27,644.469Z" transform="translate(-273.356 -589.685)" opacity="0.1"/>
      <path id="Trazado_3" data-name="Trazado 3" d="M214.439,648.21q.218,0,.43,0c-2.31.035-4.118.344-4.118.721s1.808.687,4.118.721q-.213,0-.43,0c-2.512,0-4.548-.325-4.548-.725S211.927,648.21,214.439,648.21Z" transform="translate(-203.089 -593.057)" opacity="0.1"/>
      <path id="Trazado_4" data-name="Trazado 4" d="M235.863,640.06s.493-2.07,3.942-1.38,3.942,1.38,3.942,1.38Z" transform="translate(-226.502 -584.34)" fill="#545870"/>
      <path id="Trazado_5" data-name="Trazado 5" d="M236.1,587.3a5.371,5.371,0,0,0,2.565,2.178,4.624,4.624,0,0,0-2.975-5.518A5.371,5.371,0,0,0,236.1,587.3Z" transform="translate(-226.249 -535.14)" fill="#545870"/>
      <path id="Trazado_6" data-name="Trazado 6" d="M216.18,607.049a5.371,5.371,0,0,1,2.055,2.665,4.624,4.624,0,0,1-5.371-3.232A5.371,5.371,0,0,1,216.18,607.049Z" transform="translate(-205.768 -555.39)" fill="#fe5778"/>
      <path id="Trazado_7" data-name="Trazado 7" d="M173.23,116.28c0,12.182-7.242,16.436-16.176,16.436s-16.176-4.254-16.176-16.436S157.054,88.6,157.054,88.6,173.23,104.1,173.23,116.28Z" transform="translate(-140.878 -88.599)" fill="#f2f2f2"/>
      <path id="Trazado_8" data-name="Trazado 8" d="M98.687,42.253l.166-10.2,6.895-12.614L98.878,30.458l.074-4.584,4.752-9.126L98.972,24.66h0l.134-8.245,5.088-7.265-5.067,5.969L99.211,0l-.526,20.014.043-.826L93.555,11.27l5.09,9.5-.482,9.208-.014-.244L92.185,21.4l5.946,9.2-.06,1.152-.011.017,0,.095L96.842,55.227h1.634l.2-12.067,5.931-9.174Z" transform="translate(-83.1 0)" fill="#545870"/>
    </g>
    <g id="Grupo_158" data-name="Grupo 158" transform="translate(186.988 566.724)">
      <path id="Trazado_16" data-name="Trazado 16" d="M859,722.94c0-.452-1.976-.849-4.965-1.079,2.368-.048,4.124-.223,4.124-.431,0-.245-2.436-.444-5.44-.444s-5.44.2-5.44.444c0,.081.265.157.728.222-6.017,0-10.887.579-10.887,1.288,0,.369,1.319.7,3.432.937-1.284.081-2.11.208-2.11.351,0,.245,2.435.444,5.44.444s5.44-.2,5.44-.444a.037.037,0,0,0,0-.008C854.768,724.146,859,723.6,859,722.94Z" transform="translate(-837.12 -696.985)" fill="#f2f2f2"/>
      <path id="Trazado_17" data-name="Trazado 17" d="M962.27,730.469q-.218,0-.43,0c2.31.035,4.118.344,4.118.721s-1.808.687-4.118.721q.212,0,.43,0c2.512,0,4.548-.325,4.548-.725S964.782,730.469,962.27,730.469Z" transform="translate(-949.548 -705.534)" opacity="0.1"/>
      <path id="Trazado_18" data-name="Trazado 18" d="M888.439,734.21q.218,0,.43,0c-2.31.035-4.118.344-4.118.721s1.808.687,4.118.721q-.213,0-.43,0c-2.512,0-4.548-.324-4.548-.725S885.927,734.21,888.439,734.21Z" transform="translate(-879.281 -708.907)" opacity="0.1"/>
      <path id="Trazado_30" data-name="Trazado 30" d="M911.729,538.01l-.175-.091c2.275-4.4,1.058-10.109-.363-14.126a43.3,43.3,0,0,0-3.674-7.754l.167-.105a43.515,43.515,0,0,1,3.693,7.793C912.811,527.781,914.036,533.549,911.729,538.01Z" transform="translate(-900.579 -512.143)" fill="#545870"/>
      <rect id="Rectángulo_37" data-name="Rectángulo 37" width="7.114" height="0.197" transform="translate(11.558 10.824) rotate(-79.645)" fill="#3f3d56"/>
      <rect id="Rectángulo_38" data-name="Rectángulo 38" width="0.197" height="9.693" transform="matrix(0.732, -0.681, 0.681, 0.732, 4.19, 9.922)" fill="#545870"/>
      <rect id="Rectángulo_39" data-name="Rectángulo 39" width="5.717" height="0.197" transform="matrix(0.586, -0.81, 0.81, 0.586, 12.856, 22.217)" fill="#3f3d56"/>
      <circle id="Elipse_4" data-name="Elipse 4" cx="0.986" cy="0.986" r="0.986" transform="translate(12.442)" fill="#fe5778"/>
      <circle id="Elipse_5" data-name="Elipse 5" cx="0.986" cy="0.986" r="0.986" transform="translate(1.699 7.589)" fill="#545870"/>
      <circle id="Elipse_6" data-name="Elipse 6" cx="0.986" cy="0.986" r="0.986" transform="translate(6.036 8.574)" fill="#545870"/>
      <circle id="Elipse_7" data-name="Elipse 7" cx="0.986" cy="0.986" r="0.986" transform="translate(4.065 12.418)" fill="#fe5778"/>
      <circle id="Elipse_8" data-name="Elipse 8" cx="0.986" cy="0.986" r="0.986" transform="translate(16.384 14.882)" fill="#3f3d56"/>
      <circle id="Elipse_9" data-name="Elipse 9" cx="0.986" cy="0.986" r="0.986" transform="translate(13.132 15.966)" fill="#3f3d56"/>
      <circle id="Elipse_10" data-name="Elipse 10" cx="0.986" cy="0.986" r="0.986" transform="translate(15.399 19.12)" fill="#3f3d56"/>
      <circle id="Elipse_11" data-name="Elipse 11" cx="0.986" cy="0.986" r="0.986" transform="translate(5.05 1.183)" fill="#545870"/>
    </g>
  </g>
</svg>
